# xmcd
#
# Track frame offsets:
#	183
#	17070
#	27283
#	44708
#	53908
#	70270
#	103883
#	138733
#	164360
#	188893
#	205845
#
# Disc length: 2966 seconds
#
# Revision: 1
# Processed by: cddbd v1.5.1PL0 Copyright (c) Steve Scherf et al.
# Submitted via: CDex 1.50Beta5
#
DISCID=a40b940b
DTITLE=スビャトラスラフ・リヒテル(ピアノ) - 花の曲・シューマン:ピアノ小品集
DYEAR=1900
DGENRE=Classical
TTITLE0=4つのフーガ 1 速くなく
TTITLE1=4つのフーガ 2 たいそう元気よく
TTITLE2=4つのフーガ 3 速くなく、そしてたいそう表情豊かに
TTITLE3=4つのフーガ 4 程良いテンポで
TTITLE4=行進曲 ト単調
TTITLE5=トッカータ
TTITLE6=花の曲
TTITLE7=夜想曲 1 ハ長調
TTITLE8=夜想曲 2 ヘ長調
TTITLE9=夜想曲 3 変ニ長調
TTITLE10=夜想曲 4 ヘ長調
EXTD=
EXTT0=
EXTT1=
EXTT2=
EXTT3=
EXTT4=
EXTT5=
EXTT6=
EXTT7=
EXTT8=
EXTT9=
EXTT10=
PLAYORDER=
